<svg width="145" height="29" viewBox="0 0 145 29" fill="none" xmlns="http://www.w3.org/2000/svg">
<path d="M21.7486 7.45455H24.8239V16.9006C24.8239 17.9612 24.5705 18.8892 24.0639 19.6847C23.562 20.4801 22.8589 21.1004 21.9545 21.5455C21.0502 21.9858 19.9967 22.206 18.794 22.206C17.5866 22.206 16.5308 21.9858 15.6264 21.5455C14.7221 21.1004 14.0189 20.4801 13.517 19.6847C13.0152 18.8892 12.7642 17.9612 12.7642 16.9006V7.45455H15.8395V16.6378C15.8395 17.1918 15.9602 17.6842 16.2017 18.1151C16.4479 18.5459 16.7936 18.8845 17.2386 19.1307C17.6837 19.3769 18.2022 19.5 18.794 19.5C19.3906 19.5 19.9091 19.3769 20.3494 19.1307C20.7945 18.8845 21.1378 18.5459 21.3793 18.1151C21.6255 17.6842 21.7486 17.1918 21.7486 16.6378V7.45455ZM39.5202 7.45455V22H36.864L30.5359 12.8452H30.4293V22H27.354V7.45455H30.0529L36.3313 16.6023H36.4592V7.45455H39.5202ZM45.1364 7.45455V22H42.0611V7.45455H45.1364ZM50.2944 7.45455L53.81 18.5057H53.945L57.4677 7.45455H60.8768L55.8626 22H51.8995L46.8782 7.45455H50.2944ZM62.6275 22V7.45455H72.4286V9.99006H65.7028V13.456H71.9244V15.9915H65.7028V19.4645H72.457V22H62.6275ZM74.8736 22V7.45455H80.6122C81.7107 7.45455 82.6482 7.65104 83.4247 8.04403C84.206 8.43229 84.8002 8.9839 85.2074 9.69886C85.6193 10.4091 85.8253 11.2448 85.8253 12.206C85.8253 13.1719 85.617 14.0028 85.2003 14.6989C84.7836 15.3902 84.1799 15.9205 83.3892 16.2898C82.6032 16.6591 81.6515 16.8438 80.5341 16.8438H76.6918V14.3722H80.0369C80.6241 14.3722 81.1117 14.2917 81.5 14.1307C81.8883 13.9697 82.1771 13.7282 82.3665 13.4062C82.5606 13.0843 82.6577 12.6842 82.6577 12.206C82.6577 11.723 82.5606 11.3158 82.3665 10.9844C82.1771 10.6529 81.8859 10.402 81.4929 10.2315C81.1046 10.0563 80.6146 9.96875 80.0227 9.96875H77.9489V22H74.8736ZM82.7287 15.3807L86.3438 22H82.9489L79.4119 15.3807H82.7287ZM95.8892 11.6378C95.8324 11.0649 95.5885 10.6198 95.1577 10.3026C94.7268 9.98532 94.142 9.8267 93.4034 9.8267C92.9015 9.8267 92.4777 9.89773 92.1321 10.0398C91.7865 10.1771 91.5213 10.3688 91.3366 10.6151C91.1567 10.8613 91.0668 11.1406 91.0668 11.4531C91.0573 11.7135 91.1117 11.9408 91.2301 12.1349C91.3532 12.3291 91.5213 12.4972 91.7344 12.6392C91.9474 12.7765 92.1937 12.8973 92.473 13.0014C92.7524 13.1009 93.0507 13.1861 93.3679 13.2571L94.6747 13.5696C95.3092 13.7116 95.8916 13.901 96.4219 14.1378C96.9522 14.3745 97.4115 14.6657 97.7997 15.0114C98.188 15.357 98.4886 15.7642 98.7017 16.233C98.9195 16.7017 99.0308 17.2391 99.0355 17.8452C99.0308 18.7353 98.8035 19.5071 98.3537 20.1605C97.9086 20.8092 97.2647 21.3134 96.4219 21.6733C95.5838 22.0284 94.5729 22.206 93.3892 22.206C92.215 22.206 91.1922 22.026 90.321 21.6662C89.4545 21.3063 88.7775 20.7737 88.2898 20.0682C87.8068 19.358 87.5535 18.4796 87.5298 17.4332H90.5057C90.5388 17.9209 90.6785 18.3281 90.9247 18.6548C91.1757 18.9768 91.5095 19.2206 91.9261 19.3864C92.3475 19.5473 92.8234 19.6278 93.3537 19.6278C93.8745 19.6278 94.3267 19.5521 94.7102 19.4006C95.0985 19.2491 95.3991 19.0384 95.6122 18.7685C95.8253 18.4986 95.9318 18.1884 95.9318 17.8381C95.9318 17.5114 95.8348 17.2367 95.6406 17.0142C95.4512 16.7917 95.1719 16.6023 94.8026 16.446C94.438 16.2898 93.9905 16.1477 93.4602 16.0199L91.8764 15.6222C90.6501 15.3239 89.6818 14.8575 88.9716 14.223C88.2614 13.5885 87.9086 12.7339 87.9134 11.6591C87.9086 10.7784 88.143 10.009 88.6165 9.35085C89.0947 8.69271 89.7505 8.17898 90.5838 7.80966C91.4171 7.44034 92.3641 7.25568 93.4247 7.25568C94.5043 7.25568 95.4465 7.44034 96.2514 7.80966C97.0611 8.17898 97.6908 8.69271 98.1406 9.35085C98.5904 10.009 98.8224 10.7713 98.8366 11.6378H95.8892ZM104.179 7.45455V22H101.104V7.45455H104.179ZM106.156 9.99006V7.45455H118.102V9.99006H113.648V22H110.609V9.99006H106.156ZM119.217 7.45455H122.661L125.978 13.7188H126.12L129.437 7.45455H132.881L127.576 16.858V22H124.522V16.858L119.217 7.45455Z" fill="#1E1E1E"/>
</svg>
