<svg width="28" height="28" viewBox="0 0 28 28" fill="none" xmlns="http://www.w3.org/2000/svg">
<g clip-path="url(#clip0_37_1100)">
<g clip-path="url(#clip1_37_1100)">
<path d="M18.7353 0.5H9.26471C4.14795 0.5 0 4.64795 0 9.76471V19.2353C0 24.3521 4.14795 28.5 9.26471 28.5H18.7353C23.8521 28.5 28 24.3521 28 19.2353V9.76471C28 4.64795 23.8521 0.5 18.7353 0.5Z" fill="#1E1E1E"/>
<path d="M8.32643 7.5V15.9283C8.32646 16.4366 8.41776 16.8886 8.60041 17.284C8.78666 17.6794 9.04832 17.9901 9.38498 18.2161C9.72161 18.4419 10.1138 18.5548 10.5614 18.5548C11.0127 18.5548 11.4051 18.442 11.7382 18.2161C12.0749 17.9901 12.3344 17.6793 12.5171 17.284C12.7033 16.8886 12.7968 16.4366 12.7968 15.9283V7.5H14.8382L19.5878 15.8951H19.6846V7.5H22V20.849H19.9907L15.2037 12.4475H15.1227V16.1694C15.1227 17.1427 14.9312 17.9945 14.548 18.7245C14.1683 19.4545 13.6365 20.0239 12.9525 20.4324C12.9012 20.4626 12.8493 20.4915 12.7968 20.5195C12.1483 20.8653 11.4029 21.0385 10.5614 21.0385C9.64805 21.0384 8.84911 20.8365 8.16501 20.4324C7.48096 20.0239 6.94917 19.4545 6.56951 18.7245C6.18987 17.9945 6.00003 17.1427 6 16.1694V7.5H8.32643Z" fill="white"/>
<rect x="21" y="8.5" width="3" height="3" fill="#005AFF"/>
</g>
</g>
<defs>
<clipPath id="clip0_37_1100">
<rect width="28" height="28" fill="white"/>
</clipPath>
<clipPath id="clip1_37_1100">
<rect width="28" height="28" rx="8" fill="white"/>
</clipPath>
</defs>
</svg>
